M48
;DRILL file {KiCad 4.0.7} date 01/18/18 16:45:12
;FORMAT={-:-/ absolute / metric / decimal}
FMAT,2
METRIC,TZ
T1C0.400
T2C0.500
T3C0.650
T4C0.700
T5C0.750
T6C0.813
T7C0.900
T8C1.000
T9C1.100
T10C1.400
T11C3.500
T12C3.200
%
G90
G05
M71
T1
X116.25Y-124.
X116.25Y-125.25
X116.25Y-126.5
X116.25Y-134.75
X116.75Y-99.75
X117.Y-98.
X117.Y-135.75
X117.5Y-124.
X117.5Y-125.
X118.Y-98.
X118.Y-99.
X118.Y-109.
X118.Y-110.
X118.Y-134.75
X118.Y-135.75
X118.75Y-124.
X118.75Y-125.
X119.Y-98.
X119.Y-99.
X119.Y-109.
X119.Y-110.
X119.Y-112.75
X119.Y-114.5
X119.Y-135.75
X119.75Y-134.75
X120.Y-98.
X120.Y-99.
X120.Y-109.
X120.Y-110.
X120.Y-124.
X120.Y-125.
X120.25Y-135.75
X120.75Y-112.75
X120.75Y-114.5
X121.Y-98.
X121.Y-99.
X121.Y-109.
X121.Y-110.
X121.Y-134.75
X121.25Y-124.
X121.25Y-125.
X121.5Y-126.
X121.5Y-135.5
X122.Y-98.
X122.Y-99.
X122.Y-109.
X122.Y-110.
X122.25Y-134.
X122.75Y-124.
X122.75Y-125.
X122.75Y-126.25
X122.75Y-134.75
X123.Y-99.1
X123.Y-100.1
X123.Y-109.
X123.Y-110.
X123.1Y-98.
X123.1Y-107.9
X123.25Y-133.25
X123.5Y-127.25
X123.5Y-135.5
X123.75Y-124.
X123.75Y-125.
X123.75Y-126.25
X123.75Y-132.
X124.Y-99.25
X124.Y-101.
X124.Y-102.
X124.Y-103.
X124.Y-104.
X124.Y-105.
X124.Y-106.
X124.Y-107.
X124.Y-108.
X124.Y-109.
X124.Y-110.
X124.Y-134.
X124.1Y-100.2
X124.75Y-127.25
X124.75Y-128.5
X124.75Y-129.75
X124.75Y-131.
X124.75Y-132.
X124.75Y-133.25
X124.75Y-135.25
X124.9Y-124.
X124.9Y-125.
X124.9Y-126.1
X125.Y-98.
X125.Y-99.6
X125.Y-101.
X125.Y-102.
X125.Y-103.
X125.Y-104.
X125.Y-105.
X125.Y-106.
X125.Y-107.
X125.Y-108.
X125.Y-109.
X125.Y-110.
X125.Y-134.25
X126.Y-124.
X126.Y-125.1
X126.Y-126.2
X126.Y-127.25
X126.Y-128.5
X126.Y-129.75
X126.Y-131.
X126.Y-132.
X126.Y-133.25
X126.Y-134.25
X126.Y-135.25
X131.Y-98.
X131.Y-99.
X131.Y-100.
X131.Y-101.
X131.Y-102.
X131.Y-103.
X131.Y-104.
X131.Y-105.
X131.Y-106.
X131.Y-107.
X131.Y-108.
X131.Y-109.
X131.Y-110.
X131.Y-111.
X132.Y-97.5
X132.Y-98.5
X132.Y-99.5
X132.Y-100.5
X132.Y-101.5
X132.Y-102.5
X132.Y-103.5
X132.Y-104.5
X132.Y-105.5
X132.Y-106.5
X132.Y-107.5
X132.Y-108.5
X132.Y-109.5
X132.Y-110.5
X133.Y-98.
X133.Y-99.
X133.Y-100.
X133.Y-101.
X133.Y-102.
X133.Y-103.
X133.Y-104.
X133.Y-105.
X133.Y-106.
X133.Y-107.
X133.Y-108.
X133.Y-109.05
X133.Y-110.
X133.Y-111.
X137.1Y-88.85
X137.1Y-90.6
X137.1Y-92.1
X137.1Y-93.6
X137.1Y-94.85
X137.1Y-87.35
X138.7Y-85.55
X139.6Y-88.85
X139.6Y-90.6
X139.6Y-92.1
X139.6Y-93.6
X139.6Y-94.85
X140.Y-84.15
X140.85Y-87.35
X141.Y-121.
X141.Y-122.
X141.Y-123.
X141.Y-124.
X141.Y-125.
X141.Y-126.25
X141.Y-133.75
X141.Y-134.75
X141.Y-135.75
X141.25Y-129.25
X141.25Y-130.5
X141.25Y-131.5
X141.25Y-132.5
X141.4Y-82.7
X142.Y-121.
X142.Y-122.
X142.Y-123.
X142.Y-124.
X142.Y-125.25
X142.Y-134.75
X142.Y-135.75
X142.25Y-126.25
X142.25Y-129.254
X142.25Y-130.5
X142.25Y-130.5
X142.25Y-131.5
X142.25Y-132.5
X142.25Y-133.75
X142.35Y-85.85
X142.55Y-81.45
X142.75Y-121.
X142.75Y-122.
X142.75Y-123.
X142.75Y-124.
X142.81Y-125.19
X143.Y-134.5
X143.Y-135.75
X143.25Y-126.25
X143.25Y-129.254
X143.25Y-130.5
X143.25Y-130.5
X143.25Y-131.5
X143.6Y-84.35
X143.75Y-121.
X143.75Y-122.
X143.75Y-123.
X143.75Y-124.
X143.75Y-125.19
X144.Y-80.15
X144.Y-129.254
X144.Y-130.5
X144.Y-131.5
X144.Y-134.606
X144.Y-135.75
X144.2Y-72.8
X144.85Y-83.1
X145.Y-98.5
X145.Y-99.5
X145.Y-100.5
X145.Y-101.5
X145.Y-102.5
X145.Y-103.5
X145.Y-104.5
X145.Y-105.5
X145.Y-106.5
X145.Y-107.5
X145.Y-108.5
X145.Y-109.5
X145.Y-134.75
X145.Y-134.75
X145.Y-135.75
X145.5Y-78.65
X146.Y-98.
X146.Y-99.
X146.Y-100.
X146.Y-101.
X146.Y-102.
X146.Y-103.
X146.Y-104.
X146.Y-105.
X146.Y-106.
X146.Y-107.
X146.Y-107.895
X146.Y-109.
X146.Y-110.
X146.35Y-81.6
X146.8Y-127.8
X147.Y-98.
X147.Y-98.
X147.Y-99.
X147.Y-100.
X147.Y-101.
X147.Y-102.
X147.Y-103.
X147.Y-104.
X147.Y-105.
X147.Y-106.
X147.Y-107.
X147.Y-107.895
X147.Y-109.
X147.Y-110.
X147.05Y-77.4
X147.25Y-123.5
X147.25Y-124.5
X147.25Y-125.5
X147.25Y-130.
X147.25Y-131.
X147.25Y-132.
X147.6Y-72.2
X147.8Y-127.8
X147.85Y-80.1
X148.25Y-123.5
X148.25Y-124.5
X148.25Y-125.5
X148.25Y-130.
X148.25Y-131.
X148.25Y-132.
X148.35Y-76.1
X149.2Y-127.8
X149.25Y-123.5
X149.25Y-124.5
X149.25Y-125.5
X149.25Y-130.
X149.25Y-131.
X149.25Y-132.
X149.6Y-78.6
X150.3Y-69.05
X150.35Y-74.35
X150.35Y-75.35
X150.663Y-127.85
X151.6Y-78.35
X151.75Y-129.254
X151.75Y-131.794
X151.75Y-133.064
X151.8Y-127.8
X151.8Y-130.524
X152.1Y-74.35
X152.1Y-75.35
X152.1Y-101.1
X152.1Y-102.2
X152.1Y-103.2
X152.1Y-104.1
X152.1Y-105.
X152.1Y-106.
X152.2Y-99.9
X152.2Y-107.1
X152.25Y-122.65
X152.25Y-126.508
X152.3Y-123.968
X152.3Y-125.19
X152.4Y-66.95
X152.4Y-68.
X152.45Y-129.254
X152.5Y-130.524
X152.5Y-131.794
X152.5Y-133.064
X153.Y-103.2
X153.Y-122.65
X153.Y-126.508
X153.Y-127.8
X153.05Y-123.968
X153.1Y-125.19
X153.2Y-99.9
X153.2Y-107.1
X153.25Y-131.794
X153.3Y-130.524
X153.3Y-133.064
X153.35Y-129.254
X153.8Y-78.45
X153.8Y-122.65
X153.8Y-123.968
X153.8Y-126.508
X153.85Y-125.19
X154.Y-103.2
X154.Y-127.8
X154.1Y-99.9
X154.1Y-133.064
X154.15Y-131.794
X154.2Y-107.1
X154.2Y-129.254
X154.25Y-130.524
X154.5Y-122.698
X154.55Y-123.968
X154.55Y-126.508
X154.6Y-125.19
X154.8Y-68.
X154.9Y-133.064
X155.Y-129.254
X155.05Y-130.524
X155.05Y-131.794
X155.1Y-103.2
X155.2Y-100.
X155.2Y-107.1
X155.2Y-122.698
X155.2Y-127.8
X155.25Y-123.968
X155.3Y-125.19
X155.35Y-126.508
X155.6Y-133.064
X155.65Y-77.65
X155.7Y-129.254
X155.75Y-130.524
X155.75Y-131.8
X155.85Y-73.65
X156.Y-85.4
X156.Y-86.45
X156.Y-122.698
X156.05Y-84.3
X156.05Y-123.968
X156.1Y-102.9
X156.1Y-125.19
X156.1Y-126.508
X156.2Y-100.4
X156.3Y-103.7
X156.3Y-106.8
X156.3Y-133.064
X156.4Y-127.8
X156.4Y-129.254
X156.4Y-131.794
X156.45Y-130.524
X156.55Y-74.7
X156.8Y-102.1
X156.9Y-101.1
X157.Y-84.
X157.Y-85.3
X157.Y-86.45
X157.1Y-76.8
X157.2Y-104.2
X157.2Y-106.2
X157.5Y-105.1
X157.6Y-127.8
X157.95Y-85.25
X158.1Y-56.829
X158.75Y-75.6
X158.8Y-127.8
X158.975Y-68.15
X159.Y-123.5
X159.Y-124.5
X159.Y-125.5
X159.Y-130.25
X159.Y-131.25
X159.Y-132.25
X160.Y-75.6
X160.Y-79.7
X160.Y-123.5
X160.Y-124.5
X160.Y-125.5
X160.Y-127.8
X160.Y-130.25
X160.Y-131.25
X160.Y-132.25
X160.825Y-68.175
X160.9Y-78.8
X161.Y-123.5
X161.Y-124.5
X161.Y-125.5
X161.Y-130.25
X161.Y-131.25
X161.Y-132.25
X161.2Y-99.8
X161.2Y-101.
X161.2Y-102.
X161.2Y-103.2
X161.2Y-104.6
X161.2Y-105.8
X161.2Y-106.9
X161.2Y-127.8
X161.4Y-84.7
X161.6Y-78.1
X161.7Y-79.9
X162.1Y-54.9
X162.2Y-101.4
X162.4Y-77.4
X162.8Y-102.6
X163.25Y-135.
X163.25Y-135.75
X163.3Y-76.7
X163.5Y-77.7
X163.5Y-78.7
X163.5Y-79.9
X163.6Y-103.8
X164.1Y-73.6
X164.15Y-66.1
X164.2Y-105.2
X164.25Y-130.524
X164.25Y-131.75
X164.25Y-133.
X164.25Y-134.
X164.25Y-135.
X164.25Y-135.75
X164.3Y-129.5
X164.5Y-123.968
X164.5Y-125.25
X164.5Y-126.508
X165.Y-103.8
X165.226Y-130.524
X165.25Y-124.
X165.25Y-125.25
X165.25Y-126.508
X165.25Y-129.5
X165.25Y-131.75
X165.25Y-133.
X165.25Y-134.
X165.25Y-135.
X165.25Y-135.75
X165.35Y-74.35
X165.6Y-102.8
X166.Y-119.5
X166.Y-120.75
X166.Y-122.
X166.Y-123.
X166.Y-124.
X166.Y-125.25
X166.008Y-126.508
X166.1Y-75.35
X166.1Y-76.85
X166.25Y-129.5
X166.25Y-130.5
X166.25Y-131.75
X166.25Y-133.
X166.25Y-134.
X166.25Y-135.
X166.25Y-135.75
X166.35Y-79.6
X166.4Y-101.6
X167.Y-119.5
X167.Y-120.75
X167.Y-122.
X167.Y-123.
X167.Y-124.
X167.Y-125.25
X167.Y-126.5
X167.2Y-100.
X167.4Y-106.8
X167.4Y-101.2
X167.4Y-102.2
X167.4Y-103.4
X167.4Y-104.6
X167.4Y-105.8
X168.7Y-92.25
X169.1Y-91.6
X169.6Y-92.35
X169.6Y-93.35
X169.888Y-77.986
X170.35Y-91.6
X170.6Y-92.35
X170.6Y-93.35
X171.Y-106.6
X171.2Y-101.
X171.4Y-102.2
X172.Y-100.
X172.Y-107.
X172.Y-57.2
X172.3Y-61.6
X172.3Y-74.8
X172.4Y-103.
X172.85Y-74.2
X173.Y-107.
X173.2Y-99.8
X173.507Y-76.007
X173.8Y-103.4
X174.Y-107.
X174.4Y-75.7
X174.4Y-99.8
X175.2Y-103.8
X175.2Y-106.6
X175.301Y-52.069
X175.6Y-100.
X175.67Y-69.991
X175.795Y-69.212
X176.Y-104.6
X176.2Y-100.4
X176.2Y-105.6
X176.4Y-53.3
X176.681Y-68.981
X176.9Y-68.2
X177.9Y-76.9
X179.076Y-71.129
X179.2Y-61.
X179.325Y-65.6
X179.585Y-70.512
X179.75Y-66.275
X180.128Y-60.418
X180.2Y-69.9
X180.9Y-69.34
X180.99Y-67.551
X181.Y-99.
X181.Y-100.
X181.Y-101.
X181.Y-102.
X181.Y-103.
X181.Y-104.
X181.Y-105.
X181.Y-106.
X181.Y-107.
X181.Y-107.895
X181.Y-109.
X181.Y-110.
X181.Y-111.
X181.Y-112.
X181.Y-123.25
X181.Y-124.5
X181.Y-125.75
X181.Y-127.
X181.Y-128.5
X181.Y-129.75
X181.Y-131.25
X181.Y-133.
X181.Y-134.5
X181.Y-135.5
X181.131Y-63.7
X181.575Y-62.95
X181.951Y-60.777
X182.Y-99.
X182.Y-100.
X182.Y-101.
X182.Y-102.
X182.Y-103.
X182.Y-104.
X182.Y-105.
X182.Y-106.
X182.Y-107.
X182.Y-107.895
X182.Y-109.
X182.Y-110.
X182.Y-111.
X182.Y-112.
X182.Y-123.25
X182.Y-124.5
X182.Y-125.75
X182.Y-127.
X182.Y-128.5
X182.Y-129.75
X182.Y-131.25
X182.Y-133.
X182.Y-134.5
X182.Y-135.5
X182.368Y-61.469
X182.579Y-60.281
X182.9Y-93.55
X183.Y-99.
X183.Y-100.
X183.Y-101.5
X183.Y-102.5
X183.Y-103.5
X183.Y-105.5
X183.Y-106.5
X183.Y-107.5
X183.Y-133.5
X183.25Y-109.
X183.25Y-110.
X183.25Y-111.
X183.25Y-112.
X183.25Y-123.25
X183.25Y-124.5
X183.25Y-125.75
X183.25Y-134.5
X183.25Y-135.5
X183.5Y-127.
X183.85Y-57.208
X184.Y-101.
X184.Y-107.895
X184.25Y-99.
X184.25Y-100.
X184.5Y-109.
X184.5Y-110.
X184.5Y-111.
X184.5Y-112.
X184.5Y-123.295
X184.5Y-124.5
X184.5Y-125.75
X184.5Y-134.5
X184.5Y-135.5
X184.7Y-55.5
X185.5Y-99.
X185.5Y-100.
X185.666Y-59.801
X185.75Y-109.
X185.75Y-110.
X185.75Y-111.
X185.75Y-123.25
X185.75Y-124.5
X185.75Y-125.75
X185.75Y-134.5
X185.75Y-135.5
X185.788Y-60.601
X185.837Y-62.991
X185.889Y-61.395
X185.91Y-62.194
X186.75Y-99.
X186.75Y-123.25
X186.75Y-124.5
X186.75Y-125.75
X187.Y-68.3
X187.Y-69.3
X187.Y-70.2
X187.4Y-54.2
X187.75Y-123.25
X187.75Y-124.5
X187.75Y-125.75
X187.838Y-57.238
X188.Y-99.
X188.7Y-79.9
X188.713Y-71.
X188.77Y-68.3
X188.77Y-69.297
X188.77Y-70.2
X190.028Y-55.004
X191.3Y-60.4
T2
X116.75Y-104.41
X116.804Y-130.
X117.519Y-102.554
X117.519Y-106.266
X117.573Y-128.144
X117.573Y-131.856
X119.375Y-101.785
X119.375Y-107.035
X119.429Y-127.375
X119.429Y-132.625
X121.231Y-102.554
X121.231Y-106.266
X121.285Y-128.144
X121.285Y-131.856
X122.Y-104.41
X122.054Y-130.
X124.Y-49.
X139.7Y-110.6
X140.5Y-95.95
X140.6Y-110.593
X141.476Y-110.615
X141.792Y-96.236
X142.945Y-96.195
X144.031Y-71.393
X145.55Y-114.5
X147.4Y-49.
X147.485Y-71.215
X156.323Y-51.8
X157.25Y-58.228
X159.45Y-65.2
X164.35Y-120.2
X164.4Y-122.7
X168.Y-61.
X184.375Y-130.
X184.488Y-104.41
X185.144Y-128.144
X185.144Y-131.856
X185.257Y-102.554
X185.257Y-106.266
X187.Y-127.375
X187.Y-132.625
X187.113Y-101.785
X187.113Y-107.035
X188.856Y-128.144
X188.856Y-131.856
X188.969Y-102.554
X188.969Y-106.266
X189.625Y-130.
X189.738Y-104.41
T3
X191.808Y-52.724
X191.808Y-53.994
X191.808Y-55.264
X191.808Y-56.534
X191.808Y-57.804
X191.808Y-59.074
T4
X132.75Y-115.9
X143.85Y-133.05
X144.2Y-127.8
X163.9Y-128.
X173.45Y-73.35
X175.25Y-75.
X182.2Y-58.941
T5
X159.15Y-85.25
T6
X173.838Y-62.63
X173.838Y-65.17
X173.901Y-67.9
X173.901Y-70.441
T7
X135.42Y-66.897
X135.42Y-71.825
X135.471Y-61.868
X135.572Y-56.636
X155.55Y-92.95
X171.95Y-93.4
X175.3Y-57.2
T8
X148.755Y-57.677
X148.755Y-60.217
X148.755Y-64.281
X148.755Y-66.821
X149.7Y-93.55
X152.24Y-93.55
X162.4Y-49.7
X164.94Y-49.7
X167.48Y-49.7
X170.02Y-49.7
X172.56Y-49.7
X175.1Y-49.7
X180.42Y-49.7
X182.96Y-49.7
X185.5Y-49.7
X188.04Y-49.7
X190.58Y-49.7
X190.6Y-88.52
X190.6Y-91.06
X190.6Y-93.6
X191.6Y-62.26
X191.6Y-64.8
X191.6Y-67.34
X191.6Y-69.88
X191.6Y-72.42
X191.6Y-74.96
X191.6Y-77.5
T9
X128.714Y-63.392
X128.816Y-58.058
X128.816Y-74.619
X128.867Y-68.98
T10
X119.164Y-51.835
X119.164Y-56.835
X119.164Y-61.835
X119.164Y-66.835
X119.164Y-71.835
X119.164Y-76.835
T11
X119.375Y-104.41
X119.429Y-130.
X187.Y-130.
X187.113Y-104.41
T12
X118.Y-86.6
X185.6Y-86.6
T0
M30
