G04 #@! TF.FileFunction,Soldermask,Top*
%FSLAX46Y46*%
G04 Gerber Fmt 4.6, Leading zero omitted, Abs format (unit mm)*
G04 Created by KiCad (PCBNEW 4.0.7) date 01/18/18 16:43:29*
%MOMM*%
%LPD*%
G01*
G04 APERTURE LIST*
%ADD10C,0.100000*%
%ADD11R,1.150000X1.200000*%
%ADD12C,3.600000*%
%ADD13R,1.200000X1.150000*%
%ADD14R,2.900000X1.400000*%
%ADD15R,1.400000X2.900000*%
%ADD16R,1.400000X2.000000*%
%ADD17R,2.000000X1.400000*%
%ADD18R,1.600000X1.300000*%
%ADD19R,1.300000X1.600000*%
%ADD20R,1.200000X1.200000*%
%ADD21R,1.500000X1.500000*%
%ADD22R,0.850000X1.000000*%
%ADD23R,1.000000X0.850000*%
%ADD24R,3.700000X2.900000*%
%ADD25O,0.220000X1.320000*%
%ADD26C,0.220000*%
%ADD27O,0.520000X0.220000*%
%ADD28R,0.700000X1.300000*%
%ADD29R,2.100000X2.100000*%
%ADD30O,2.100000X2.100000*%
%ADD31C,1.800000*%
%ADD32C,7.400000*%
%ADD33C,1.200000*%
%ADD34R,1.400000X1.400000*%
%ADD35O,1.400000X1.400000*%
%ADD36R,4.000000X2.400000*%
%ADD37O,4.000000X2.400000*%
%ADD38R,0.908000X1.416000*%
%ADD39R,1.400000X0.900000*%
%ADD40R,1.416000X0.908000*%
%ADD41R,6.300000X2.000000*%
%ADD42R,1.200000X1.300000*%
%ADD43R,1.300000X1.200000*%
%ADD44R,1.400000X1.800000*%
%ADD45R,0.900000X1.300000*%
%ADD46R,2.800000X2.900000*%
%ADD47R,1.300000X0.900000*%
%ADD48R,3.100000X3.600000*%
%ADD49R,1.850000X1.100000*%
%ADD50C,1.900000*%
%ADD51R,1.850000X0.850000*%
%ADD52R,1.460000X1.050000*%
%ADD53R,1.900000X0.850000*%
%ADD54R,1.440000X0.740000*%
%ADD55R,1.500000X0.800000*%
%ADD56R,0.950000X1.400000*%
%ADD57R,4.750000X4.910000*%
%ADD58R,1.100000X1.100000*%
G04 APERTURE END LIST*
D10*
D11*
X173675000Y-92900000D03*
X173675000Y-91400000D03*
D12*
X185600000Y-86600000D03*
D13*
X163973000Y-83762000D03*
X162473000Y-83762000D03*
D11*
X145199000Y-53105000D03*
X145199000Y-51605000D03*
D14*
X157575000Y-88450000D03*
X157575000Y-91450000D03*
D15*
X160900000Y-94000000D03*
X157900000Y-94000000D03*
D11*
X145199000Y-57284000D03*
X145199000Y-55784000D03*
X171869000Y-69793500D03*
X171869000Y-68293500D03*
D13*
X165278400Y-58870800D03*
X163778400Y-58870800D03*
D15*
X159399000Y-58058000D03*
X156399000Y-58058000D03*
D13*
X165761000Y-63011000D03*
X164261000Y-63011000D03*
D16*
X163955500Y-61042500D03*
X166955500Y-61042500D03*
D11*
X145199000Y-62110000D03*
X145199000Y-60610000D03*
X179150000Y-92600000D03*
X179150000Y-91100000D03*
D17*
X181100000Y-90450000D03*
X181100000Y-93450000D03*
D13*
X150600000Y-72350000D03*
X152100000Y-72350000D03*
X153604500Y-72350000D03*
X155104500Y-72350000D03*
X156600000Y-72350000D03*
X158100000Y-72350000D03*
D11*
X170400000Y-56550000D03*
X170400000Y-55050000D03*
X145199000Y-67444000D03*
X145199000Y-65944000D03*
X132080000Y-114034000D03*
X132080000Y-112534000D03*
X145199000Y-72016000D03*
X145199000Y-70516000D03*
X133604000Y-114034000D03*
X133604000Y-112534000D03*
X145199000Y-75318000D03*
X145199000Y-73818000D03*
D13*
X130290000Y-114046000D03*
X128790000Y-114046000D03*
X151550000Y-134950000D03*
X153050000Y-134950000D03*
X155100000Y-134950000D03*
X156600000Y-134950000D03*
D11*
X179324000Y-117602000D03*
X179324000Y-119102000D03*
D13*
X143764000Y-119634000D03*
X142264000Y-119634000D03*
D11*
X179324000Y-113562000D03*
X179324000Y-115062000D03*
D16*
X179870000Y-56661000D03*
X176870000Y-56661000D03*
D13*
X178219000Y-54756000D03*
X176719000Y-54756000D03*
D11*
X187000000Y-59950000D03*
X187000000Y-61450000D03*
D13*
X187050000Y-58200000D03*
X188550000Y-58200000D03*
D18*
X169827000Y-85542000D03*
X169827000Y-88842000D03*
D19*
X138720000Y-49422000D03*
X135420000Y-49422000D03*
D20*
X124841000Y-49930000D03*
X126441000Y-49930000D03*
D21*
X160525000Y-88625000D03*
X160525000Y-91425000D03*
D22*
X139865000Y-52690000D03*
X139865000Y-54790000D03*
D20*
X124841000Y-55264000D03*
X126441000Y-55264000D03*
D22*
X139865000Y-57643000D03*
X139865000Y-59743000D03*
D20*
X124841000Y-60598000D03*
X126441000Y-60598000D03*
D23*
X153650000Y-70350000D03*
X151550000Y-70350000D03*
X155050000Y-70350000D03*
X157150000Y-70350000D03*
D20*
X191635000Y-82500000D03*
X191635000Y-80900000D03*
D22*
X139865000Y-62977000D03*
X139865000Y-65077000D03*
D20*
X124841000Y-66186000D03*
X126441000Y-66186000D03*
D22*
X139865000Y-67930000D03*
X139865000Y-70030000D03*
D20*
X124841000Y-71774000D03*
X126441000Y-71774000D03*
D22*
X148628000Y-74602000D03*
X148628000Y-72502000D03*
X139865000Y-72756000D03*
X139865000Y-74856000D03*
D24*
X120015000Y-120240000D03*
X120015000Y-113440000D03*
X186690000Y-119605000D03*
X186690000Y-112805000D03*
D20*
X179100000Y-72000000D03*
X179100000Y-73600000D03*
X180600000Y-72000000D03*
X180600000Y-73600000D03*
X182100000Y-72000000D03*
X182100000Y-73600000D03*
X183600000Y-72000000D03*
X183600000Y-73600000D03*
D23*
X158441000Y-52724000D03*
X156341000Y-52724000D03*
D10*
G36*
X181778142Y-116286000D02*
X181564000Y-116500142D01*
X181349858Y-116286000D01*
X181564000Y-116071858D01*
X181778142Y-116286000D01*
X181778142Y-116286000D01*
G37*
G36*
X181778142Y-116136000D02*
X181564000Y-116350142D01*
X181349858Y-116136000D01*
X181564000Y-115921858D01*
X181778142Y-116136000D01*
X181778142Y-116136000D01*
G37*
G36*
X181778142Y-115986000D02*
X181564000Y-116200142D01*
X181349858Y-115986000D01*
X181564000Y-115771858D01*
X181778142Y-115986000D01*
X181778142Y-115986000D01*
G37*
G36*
X181778142Y-115836000D02*
X181564000Y-116050142D01*
X181349858Y-115836000D01*
X181564000Y-115621858D01*
X181778142Y-115836000D01*
X181778142Y-115836000D01*
G37*
G36*
X181778142Y-115686000D02*
X181564000Y-115900142D01*
X181349858Y-115686000D01*
X181564000Y-115471858D01*
X181778142Y-115686000D01*
X181778142Y-115686000D01*
G37*
G36*
X181778142Y-115536000D02*
X181564000Y-115750142D01*
X181349858Y-115536000D01*
X181564000Y-115321858D01*
X181778142Y-115536000D01*
X181778142Y-115536000D01*
G37*
G36*
X181778142Y-115386000D02*
X181564000Y-115600142D01*
X181349858Y-115386000D01*
X181564000Y-115171858D01*
X181778142Y-115386000D01*
X181778142Y-115386000D01*
G37*
D25*
X181114000Y-115786000D03*
D26*
X181122579Y-115227421D02*
X181405421Y-114944579D01*
D25*
X182014000Y-115786000D03*
D27*
X181564000Y-114936000D03*
D26*
X182005421Y-115227421D02*
X181722579Y-114944579D01*
D28*
X181564000Y-115686000D03*
D29*
X152240000Y-93550000D03*
D30*
X149700000Y-93550000D03*
D31*
X173901000Y-67900500D03*
X173901000Y-70440500D03*
D29*
X148755000Y-57677000D03*
D30*
X148755000Y-60217000D03*
D29*
X148755000Y-64281000D03*
D30*
X148755000Y-66821000D03*
D29*
X190600000Y-93600000D03*
D30*
X190600000Y-91060000D03*
X190600000Y-88520000D03*
D32*
X119428845Y-130000000D03*
D33*
X122053845Y-130000000D03*
X121285000Y-131856155D03*
X119428845Y-132625000D03*
X117572690Y-131856155D03*
X116803845Y-130000000D03*
X117572690Y-128143845D03*
X119428845Y-127375000D03*
X121285000Y-128143845D03*
D32*
X187000000Y-130000000D03*
D33*
X189625000Y-130000000D03*
X188856155Y-131856155D03*
X187000000Y-132625000D03*
X185143845Y-131856155D03*
X184375000Y-130000000D03*
X185143845Y-128143845D03*
X187000000Y-127375000D03*
X188856155Y-128143845D03*
D29*
X162400000Y-49700000D03*
D30*
X164940000Y-49700000D03*
X167480000Y-49700000D03*
X170020000Y-49700000D03*
X172560000Y-49700000D03*
X175100000Y-49700000D03*
D34*
X191808000Y-52724000D03*
D35*
X191808000Y-53994000D03*
X191808000Y-55264000D03*
X191808000Y-56534000D03*
X191808000Y-57804000D03*
X191808000Y-59074000D03*
D36*
X119164000Y-76835000D03*
D37*
X119164000Y-71835000D03*
X119164000Y-66835000D03*
X119164000Y-61835000D03*
X119164000Y-56835000D03*
X119164000Y-51835000D03*
D32*
X119375000Y-104410000D03*
D33*
X122000000Y-104410000D03*
X121231155Y-106266155D03*
X119375000Y-107035000D03*
X117518845Y-106266155D03*
X116750000Y-104410000D03*
X117518845Y-102553845D03*
X119375000Y-101785000D03*
X121231155Y-102553845D03*
D32*
X187113000Y-104410000D03*
D33*
X189738000Y-104410000D03*
X188969155Y-106266155D03*
X187113000Y-107035000D03*
X185256845Y-106266155D03*
X184488000Y-104410000D03*
X185256845Y-102553845D03*
X187113000Y-101785000D03*
X188969155Y-102553845D03*
D29*
X190580000Y-49700000D03*
D30*
X188040000Y-49700000D03*
X185500000Y-49700000D03*
X182960000Y-49700000D03*
X180420000Y-49700000D03*
D29*
X191600000Y-77500000D03*
D30*
X191600000Y-74960000D03*
X191600000Y-72420000D03*
X191600000Y-69880000D03*
X191600000Y-67340000D03*
X191600000Y-64800000D03*
X191600000Y-62260000D03*
D38*
X150750000Y-91050000D03*
X151512000Y-91050000D03*
X170472000Y-68916500D03*
X169710000Y-68916500D03*
D39*
X187100000Y-93600000D03*
X187100000Y-92900000D03*
X187100000Y-92200000D03*
D40*
X189800000Y-84181000D03*
X189800000Y-83419000D03*
D41*
X165128000Y-85921000D03*
X165128000Y-90621000D03*
D42*
X135613000Y-55121000D03*
X137513000Y-55121000D03*
X136563000Y-53121000D03*
X135613000Y-60201000D03*
X137513000Y-60201000D03*
X136563000Y-58201000D03*
X135486000Y-65281000D03*
X137386000Y-65281000D03*
X136436000Y-63281000D03*
X135486000Y-70361000D03*
X137386000Y-70361000D03*
X136436000Y-68361000D03*
D43*
X158242000Y-118192000D03*
X158242000Y-120092000D03*
X160242000Y-119142000D03*
D42*
X135486000Y-75187000D03*
X137386000Y-75187000D03*
X136436000Y-73187000D03*
D44*
X167363000Y-74715500D03*
X169263000Y-74715500D03*
X168313000Y-72515500D03*
D43*
X154800000Y-51200000D03*
X154800000Y-49300000D03*
X152800000Y-50250000D03*
X154800000Y-54800000D03*
X154800000Y-52900000D03*
X152800000Y-53850000D03*
D45*
X143409000Y-51073000D03*
X141909000Y-51073000D03*
D46*
X125666000Y-52470000D03*
X131966000Y-52470000D03*
D45*
X149378000Y-69869000D03*
X147878000Y-69869000D03*
X132868000Y-49930000D03*
X131368000Y-49930000D03*
D47*
X161429600Y-58884200D03*
X161429600Y-57384200D03*
D45*
X143409000Y-52724000D03*
X141909000Y-52724000D03*
D47*
X171986000Y-88969000D03*
X171986000Y-87469000D03*
D45*
X143409000Y-54629000D03*
X141909000Y-54629000D03*
D46*
X125666000Y-58058000D03*
X131966000Y-58058000D03*
D47*
X171986000Y-86036000D03*
X171986000Y-84536000D03*
D45*
X132868000Y-55264000D03*
X131368000Y-55264000D03*
X168275600Y-68929200D03*
X166775600Y-68929200D03*
X143282000Y-57931000D03*
X141782000Y-57931000D03*
X143231620Y-59709000D03*
X141731620Y-59709000D03*
D46*
X125666000Y-63392000D03*
X131966000Y-63392000D03*
D47*
X189800000Y-80750000D03*
X189800000Y-82250000D03*
D45*
X132868000Y-60598000D03*
X131368000Y-60598000D03*
X143282000Y-63138000D03*
X141782000Y-63138000D03*
X175032000Y-55200500D03*
X173532000Y-55200500D03*
X143231620Y-65043000D03*
X141731620Y-65043000D03*
X184776000Y-51943000D03*
X186276000Y-51943000D03*
X179173000Y-51957000D03*
X180673000Y-51957000D03*
D47*
X172000000Y-55050000D03*
X172000000Y-56550000D03*
D46*
X125666000Y-68980000D03*
X131966000Y-68980000D03*
D47*
X153600000Y-76350000D03*
X153600000Y-74850000D03*
X155231500Y-76350000D03*
X155231500Y-74850000D03*
D45*
X132868000Y-66186000D03*
X131368000Y-66186000D03*
D19*
X155552824Y-118289808D03*
X155552824Y-120489808D03*
D45*
X143282000Y-68091000D03*
X141782000Y-68091000D03*
D19*
X154028824Y-118289808D03*
X154028824Y-120489808D03*
X152504824Y-118289808D03*
X152504824Y-120489808D03*
D45*
X143231620Y-69996000D03*
X141731620Y-69996000D03*
D46*
X131966000Y-74568000D03*
X125666000Y-74568000D03*
D45*
X130290000Y-115824000D03*
X128790000Y-115824000D03*
X132868000Y-71774000D03*
X131368000Y-71774000D03*
X145530000Y-113284000D03*
X144030000Y-113284000D03*
X143282000Y-72790000D03*
X141782000Y-72790000D03*
D47*
X161200000Y-75450000D03*
X161200000Y-73950000D03*
D45*
X141490000Y-127778000D03*
X142990000Y-127778000D03*
X166612000Y-128032000D03*
X165112000Y-128032000D03*
X145530000Y-115824000D03*
X144030000Y-115824000D03*
X143282000Y-74695000D03*
X141782000Y-74695000D03*
D47*
X162800000Y-75450000D03*
X162800000Y-73950000D03*
D45*
X144030000Y-117602000D03*
X145530000Y-117602000D03*
D47*
X170900000Y-80750000D03*
X170900000Y-79250000D03*
D48*
X142928395Y-107895255D03*
X135028395Y-107895255D03*
X142928395Y-103831255D03*
X135028395Y-103831255D03*
X142928395Y-99513255D03*
X135028395Y-99513255D03*
D47*
X178900000Y-76950000D03*
X178900000Y-75450000D03*
X188500000Y-59950000D03*
X188500000Y-61450000D03*
X189100000Y-54150000D03*
X189100000Y-55650000D03*
D45*
X189185000Y-51943000D03*
X187685000Y-51943000D03*
D47*
X180500000Y-76950000D03*
X180500000Y-75450000D03*
D45*
X183479000Y-51957000D03*
X181979000Y-51957000D03*
D47*
X182100000Y-76950000D03*
X182100000Y-75450000D03*
X183700000Y-76950000D03*
X183700000Y-75450000D03*
D45*
X173850000Y-60500000D03*
X172350000Y-60500000D03*
D47*
X148600000Y-49100000D03*
X148600000Y-50600000D03*
X150800000Y-50650000D03*
X150800000Y-52150000D03*
D45*
X167690000Y-76727000D03*
X169190000Y-76727000D03*
X156323500Y-48977500D03*
X157823500Y-48977500D03*
X166459500Y-78378000D03*
X164959500Y-78378000D03*
X169190000Y-80029000D03*
X167690000Y-80029000D03*
X186500000Y-78800000D03*
X185000000Y-78800000D03*
X169190000Y-78378000D03*
X167690000Y-78378000D03*
X157823500Y-50755500D03*
X156323500Y-50755500D03*
X156450500Y-54629000D03*
X157950500Y-54629000D03*
D49*
X164590000Y-67059000D03*
X169750000Y-67059000D03*
X169750000Y-65059000D03*
X164590000Y-65059000D03*
X177620000Y-80900000D03*
X182780000Y-80900000D03*
X182780000Y-78900000D03*
X177620000Y-78900000D03*
D50*
X167350000Y-92800000D03*
X177100000Y-86800000D03*
D51*
X160912500Y-66507500D03*
X160912500Y-65857500D03*
X160912500Y-65207500D03*
X160912500Y-64557500D03*
X160912500Y-63907500D03*
X160912500Y-63257500D03*
X160912500Y-62607500D03*
X160912500Y-61957500D03*
X160912500Y-61307500D03*
X160912500Y-60657500D03*
X155012500Y-60657500D03*
X155012500Y-61307500D03*
X155012500Y-61957500D03*
X155012500Y-62607500D03*
X155012500Y-63257500D03*
X155012500Y-63907500D03*
X155012500Y-64557500D03*
X155012500Y-65207500D03*
X155012500Y-65857500D03*
X155012500Y-66507500D03*
D52*
X175300000Y-91600000D03*
X175300000Y-92550000D03*
X175300000Y-93500000D03*
X177500000Y-93500000D03*
X177500000Y-91600000D03*
D53*
X135988000Y-113295000D03*
X135988000Y-113945000D03*
X135988000Y-114595000D03*
X135988000Y-115245000D03*
X135988000Y-115895000D03*
X135988000Y-116545000D03*
X135988000Y-117195000D03*
X135988000Y-117845000D03*
X141888000Y-117845000D03*
X141888000Y-117195000D03*
X141888000Y-116545000D03*
X141888000Y-115895000D03*
X141888000Y-115245000D03*
X141888000Y-114595000D03*
X141888000Y-113945000D03*
X141888000Y-113295000D03*
D31*
X173837500Y-62630000D03*
X173837500Y-65170000D03*
D54*
X187450000Y-55600000D03*
X185350000Y-56550000D03*
X185350000Y-54650000D03*
D55*
X177980000Y-59036000D03*
X177980000Y-59686000D03*
X177980000Y-60336000D03*
X177980000Y-60986000D03*
X177980000Y-61636000D03*
X177980000Y-62286000D03*
X177980000Y-62936000D03*
X177980000Y-63586000D03*
X177980000Y-64236000D03*
X177980000Y-64886000D03*
X177980000Y-65536000D03*
X177980000Y-66186000D03*
X177980000Y-66836000D03*
X177980000Y-67486000D03*
X183680000Y-67486000D03*
X183680000Y-66836000D03*
X183680000Y-66186000D03*
X183680000Y-65536000D03*
X183680000Y-64886000D03*
X183680000Y-64236000D03*
X183680000Y-63586000D03*
X183680000Y-62936000D03*
X183680000Y-62286000D03*
X183680000Y-61636000D03*
X183680000Y-60986000D03*
X183680000Y-60336000D03*
X183680000Y-59686000D03*
X183680000Y-59036000D03*
D56*
X158209000Y-83936000D03*
X159159000Y-83936000D03*
X160109000Y-83936000D03*
X158209000Y-86636000D03*
X159159000Y-86636000D03*
X160109000Y-86636000D03*
D57*
X148193500Y-124555000D03*
D58*
X145063500Y-125190000D03*
X145063500Y-123920000D03*
X145063500Y-122650000D03*
X145063500Y-126460000D03*
X150663500Y-126460000D03*
X150663500Y-122650000D03*
X150663500Y-123920000D03*
X150663500Y-125190000D03*
D57*
X159938000Y-124603000D03*
D58*
X163068000Y-123968000D03*
X163068000Y-125238000D03*
X163068000Y-126508000D03*
X163068000Y-122698000D03*
X157468000Y-122698000D03*
X157468000Y-126508000D03*
X157468000Y-125238000D03*
X157468000Y-123968000D03*
D57*
X148193500Y-131159000D03*
D58*
X145063500Y-131794000D03*
X145063500Y-130524000D03*
X145063500Y-129254000D03*
X145063500Y-133064000D03*
X150663500Y-133064000D03*
X150663500Y-129254000D03*
X150663500Y-130524000D03*
X150663500Y-131794000D03*
D57*
X159847500Y-131159000D03*
D58*
X162977500Y-130524000D03*
X162977500Y-131794000D03*
X162977500Y-133064000D03*
X162977500Y-129254000D03*
X157377500Y-129254000D03*
X157377500Y-133064000D03*
X157377500Y-131794000D03*
X157377500Y-130524000D03*
D11*
X171950000Y-92000000D03*
X171950000Y-90500000D03*
D40*
X170091000Y-63328500D03*
X170091000Y-62566500D03*
D12*
X118000000Y-86600000D03*
D45*
X160200000Y-116550000D03*
X158700000Y-116550000D03*
M02*
